# xmcd
# 
# Track frame offsets:
#     150
#     11767
#     35932
#     52304
#     65227
#     82159
#     98221
#     117969
#     134264
#     149007
# 
# Disc length: 2257
# 
# Revision: 2
# Processed by: cddbd v1.5.2PL0 Copyright (c) Steve Scherf et al.
# Submitted via: fre:ac v1.0.31
# 
DISCID=a308cf0a
DTITLE=Brent Cobb - Shine On Rainy Day
DYEAR=2016
DGENRE=Folk
TTITLE0=Solving Problems
TTITLE1=South Of Atlanta
TTITLE2=The World
TTITLE3=Diggin' Holes
TTITLE4=Country Bound
TTITLE5=Traveling Poor Boy
TTITLE6=Shine On Rainy Day
TTITLE7=Let The Rain Come Down
TTITLE8=Down In The Gulley
TTITLE9=Black Crow
EXTD=
EXTT0=
EXTT1=
EXTT2=
EXTT3=
EXTT4=
EXTT5=
EXTT6=
EXTT7=
EXTT8=
EXTT9=
PLAYORDER=
